<svg width="51" height="52" xmlns="http://www.w3.org/2000/svg" xmlns:xlink="http://www.w3.org/1999/xlink" xml:space="preserve" overflow="hidden"><defs><clipPath id="clip0"><rect x="586" y="550" width="51" height="52"/></clipPath></defs><g clip-path="url(#clip0)" transform="translate(-586 -550)"><path d="M43.9875 20.7188C43.5625 20.7188 43.1906 20.7719 42.7656 20.8781L41.5969 17.3187C44.8375 15.6187 46.1125 11.6344 44.4125 8.39375 42.7125 5.15312 38.7281 3.87813 35.4875 5.57812 33.7344 6.48125 32.4594 8.18125 32.0344 10.0938L27.3594 9.66875C27.3063 7.225 25.3406 5.3125 22.8969 5.36563 20.4531 5.41875 18.5406 7.38437 18.5938 9.82812 18.5938 10.7313 18.9125 11.5812 19.3906 12.325L13.5469 18.1156C10.7844 15.725 6.5875 15.9906 4.19688 18.7531 1.80625 21.5156 2.01875 25.7125 4.78125 28.1031 6.00313 29.1656 7.54375 29.75 9.1375 29.75 9.29688 29.75 9.45625 29.75 9.61563 29.75L11.05 37.4C8.7125 38.0906 7.4375 40.5344 8.12813 42.8719 8.81875 45.2094 11.2625 46.4844 13.6 45.7937 15.9375 45.1031 17.2125 42.6594 16.5219 40.3219 16.4156 40.0563 16.3094 39.7906 16.2031 39.525L20.9313 37.1344 20.9313 37.1344C23.5344 40.6937 28.5281 41.4375 32.0344 38.8344 34.7438 36.8156 35.9125 33.3625 34.9563 30.1219L40.1094 27.3063C41.3313 29.3781 43.9875 30.1219 46.1125 28.9 48.1844 27.6781 48.9281 25.0219 47.7063 22.8969 46.9625 21.5687 45.5281 20.7188 43.9875 20.7188ZM35.275 15.9906C35.4344 14.2375 37.0281 12.9094 38.7812 13.0688 40.3219 13.2281 41.5437 14.45 41.7031 15.9906 39.7906 17.3187 37.2406 17.3187 35.275 15.9906ZM37.0281 10.5187C37.0281 9.72187 37.6656 9.03125 38.5156 9.03125 39.3656 9.03125 40.0031 9.66875 40.0031 10.5187 40.0031 11.3156 39.3656 12.0063 38.5156 12.0063 37.7188 12.0063 37.0281 11.3156 37.0281 10.5187L37.0281 10.5187ZM38.5156 5.84375C41.5969 5.84375 44.0938 8.34062 44.0938 11.4219 44.0938 12.8031 43.5625 14.1313 42.6594 15.1938 42.3406 13.9719 41.4375 12.9094 40.2688 12.3781 41.2781 11.4219 41.3313 9.82812 40.375 8.76562 39.4187 7.75625 37.825 7.70312 36.7625 8.65937 35.7 9.61563 35.7 11.2094 36.6562 12.2719 36.7094 12.325 36.7625 12.3781 36.7625 12.3781 35.5938 12.9094 34.6906 13.9188 34.3719 15.1938 32.3 12.9094 32.4594 9.40313 34.7438 7.33125 35.8063 6.375 37.1344 5.84375 38.5156 5.84375ZM34.9563 17.0531 30.6531 25.1813C26.8812 23.4281 22.4719 24.8625 20.4531 28.475L15.3 25.6594C16.2563 23.375 15.8312 20.7719 14.2906 18.8594L20.1344 13.0156C21.9406 14.6094 24.7031 14.3969 26.2969 12.5375 26.775 12.0063 27.0938 11.3687 27.2531 10.6781L31.9281 11.1031C31.9281 11.2094 31.9281 11.3156 31.9281 11.4219 31.875 13.7062 33.0438 15.8312 34.9563 17.0531ZM22.2594 9.1375C22.2594 8.7125 22.5781 8.39375 23.0031 8.39375 23.4281 8.39375 23.7469 8.7125 23.7469 9.1375 23.7469 9.5625 23.4281 9.88125 23.0031 9.88125 23.0031 9.88125 23.0031 9.88125 23.0031 9.88125 22.5781 9.82812 22.2594 9.50937 22.2594 9.1375ZM23.0031 10.8906C23.9062 10.8906 24.65 11.5281 24.8094 12.4312 23.6937 13.175 22.3125 13.175 21.1969 12.4312 21.3031 11.5812 22.0469 10.9438 23.0031 10.8906ZM23.0031 6.375C24.8094 6.375 26.2969 7.8625 26.35 9.66875 26.35 10.3594 26.1375 11.05 25.7125 11.6344 25.4469 11.05 25.0219 10.5187 24.4375 10.2 24.7031 9.88125 24.8094 9.50937 24.8094 9.08438 24.8094 8.075 24.0125 7.27812 23.0031 7.27812 21.9938 7.27812 21.1969 8.075 21.1969 9.08438 21.1969 9.50937 21.3563 9.88125 21.5687 10.2 20.9844 10.5187 20.5594 10.9969 20.2938 11.6344 19.2313 10.1469 19.55 8.075 20.9844 7.0125 21.5687 6.5875 22.2594 6.375 23.0031 6.375ZM3.6125 23.1094C3.6125 20.0281 6.10938 17.5312 9.19062 17.5312 12.2719 17.5312 14.7687 20.0281 14.7687 23.1094 14.7687 24.4906 14.2375 25.8187 13.3344 26.8812 13.0156 25.6594 12.1125 24.5969 10.9438 24.0656 11.9531 23.1094 12.0063 21.5156 11.05 20.4531 10.0938 19.3906 8.5 19.3906 7.4375 20.3469 6.42813 21.3031 6.375 22.8969 7.33125 23.9594 7.38437 24.0125 7.4375 24.0656 7.4375 24.0656 6.26875 24.5969 5.36563 25.6063 5.04688 26.8812 4.09062 25.8187 3.6125 24.4906 3.6125 23.1094ZM7.70312 22.2062C7.70312 21.4094 8.34062 20.7188 9.19062 20.7188 10.0406 20.7188 10.6781 21.3563 10.6781 22.2062 10.6781 23.0031 10.0406 23.6937 9.19062 23.6937 8.34062 23.6937 7.70312 23.0031 7.70312 22.2062ZM5.95 27.6781C6.10938 25.925 7.70312 24.5969 9.45625 24.7562 10.9969 24.9156 12.2188 26.1375 12.3781 27.6781 10.4656 29.0062 7.8625 29.0062 5.95 27.6781ZM10.5187 44.3594C10.6781 43.35 11.5812 42.6594 12.5906 42.8187 13.3875 42.925 14.025 43.5625 14.1313 44.3594 13.0688 45.05 11.6344 45.05 10.5187 44.3594ZM11.6344 41.0125C11.6344 40.5875 11.9531 40.2688 12.3781 40.2688 12.8031 40.2688 13.1219 40.5875 13.1219 41.0125 13.1219 41.4375 12.8031 41.7562 12.3781 41.7562 11.9531 41.7031 11.6344 41.3844 11.6344 41.0125L11.6344 41.0125ZM15.0344 43.5094C14.7687 42.925 14.3438 42.3938 13.7594 42.075 14.025 41.7562 14.1313 41.3844 14.1313 40.9594 14.1313 39.95 13.3344 39.1531 12.325 39.1531 11.3156 39.1531 10.5187 39.95 10.5187 40.9594 10.5187 41.3844 10.6781 41.7562 10.8906 42.075 10.3062 42.3938 9.88125 42.8719 9.61563 43.5094 8.55313 42.0219 8.87188 39.95 10.3594 38.8875 11.8469 37.825 13.9188 38.1438 14.9813 39.6312 15.8844 40.7469 15.8844 42.3406 15.0344 43.5094L15.0344 43.5094ZM15.5656 38.6219C14.7687 37.7188 13.6 37.1875 12.3781 37.1875 12.325 37.1875 12.2188 37.1875 12.1656 37.1875L10.7313 29.5375C12.4312 29.1125 13.9188 28.05 14.8219 26.5625L19.975 29.3781C19.0719 31.6094 19.2313 34.1062 20.3469 36.1781L15.5656 38.6219ZM23.3219 37.9844C23.4813 35.7531 25.4469 34.1062 27.6781 34.2656 29.6437 34.425 31.2375 36.0188 31.3969 37.9844 29.0062 39.7375 25.7125 39.7375 23.3219 37.9844ZM25.4469 31.2906C25.4469 30.2281 26.2969 29.3781 27.3594 29.3781 28.4219 29.3781 29.2719 30.2281 29.2719 31.2906 29.2719 32.3531 28.4219 33.2031 27.3594 33.2031 27.3594 33.2031 27.3594 33.2031 27.3594 33.2031 26.2969 33.2031 25.4469 32.3531 25.4469 31.2906ZM32.3531 37.1875C31.9813 35.5406 30.8125 34.2125 29.2719 33.575 30.5469 32.5125 30.7062 30.6531 29.6437 29.3781 28.5812 28.1031 26.7219 27.9437 25.4469 29.0062 24.1719 30.0687 24.0125 31.9281 25.075 33.2031 25.1813 33.3625 25.3406 33.4688 25.4469 33.575 23.9062 34.2125 22.7375 35.5406 22.3656 37.1875 19.7094 34.425 19.8156 30.0687 22.5781 27.4125 25.3406 24.7562 29.6969 24.8625 32.3531 27.625 34.9031 30.2812 34.9031 34.5312 32.3531 37.1875ZM34.5844 29.1125C33.9469 27.6781 32.8844 26.5094 31.6094 25.6594L35.9125 17.5312C37.4 18.1688 39.0469 18.2219 40.5875 17.7438L41.7562 21.3031C40.0031 22.3125 39.1531 24.3844 39.7375 26.2969L34.5844 29.1125ZM42.1281 27.8906C42.2875 26.8812 43.1906 26.1906 44.2 26.35 44.9969 26.4562 45.6344 27.0938 45.7406 27.8906 44.6781 28.5812 43.2438 28.5812 42.1281 27.8906ZM43.2438 24.5438C43.2438 24.1188 43.5625 23.8 43.9875 23.8 44.4125 23.8 44.7312 24.1188 44.7312 24.5438 44.7312 24.9688 44.4125 25.2875 43.9875 25.2875 43.9875 25.2875 43.9875 25.2875 43.9875 25.2875 43.5625 25.2344 43.2438 24.9156 43.2438 24.5438L43.2438 24.5438ZM46.6438 27.0406C46.3781 26.4562 45.9531 25.925 45.3688 25.6063 45.6344 25.2875 45.7406 24.9156 45.7406 24.4906 45.7406 23.4813 44.9437 22.6844 43.9344 22.6844 42.925 22.6844 42.1281 23.4813 42.1281 24.4906 42.1281 24.9156 42.2875 25.2875 42.5 25.6063 41.9156 25.925 41.4906 26.4031 41.225 27.0406 40.1625 25.5531 40.4812 23.4813 41.9688 22.4188 43.4563 21.3563 45.5281 21.675 46.5906 23.1625 47.4938 24.2781 47.4938 25.8719 46.6438 27.0406 46.6438 27.0406 46.6438 27.0406 46.6438 27.0406Z" fill="#00407A" transform="matrix(1 0 0 1.01961 586 550)"/></g></svg>