<svg width="52" height="52" xmlns="http://www.w3.org/2000/svg" xmlns:xlink="http://www.w3.org/1999/xlink" xml:space="preserve" overflow="hidden"><defs><clipPath id="clip0"><rect x="780" y="233" width="52" height="52"/></clipPath></defs><g clip-path="url(#clip0)" transform="translate(-780 -233)"><path d="M806 260.083C806.591 260.083 807.18 260.024 807.759 259.907 807.427 259.64 807.15 259.311 806.944 258.938 802.624 259.474 798.688 256.406 798.152 252.087 797.616 247.767 800.683 243.831 805.003 243.295 809.322 242.759 813.259 245.826 813.794 250.146 813.952 251.418 813.797 252.71 813.343 253.908L814.617 253.484C815.905 248.722 813.089 243.817 808.327 242.529 803.565 241.241 798.661 244.057 797.372 248.819 796.084 253.581 798.9 258.485 803.662 259.773 804.424 259.98 805.21 260.084 806 260.083Z" fill="#00407A"/><path d="M821.446 266.874C818.961 264.961 816.115 263.571 813.078 262.788 810.785 262.084 808.399 261.723 806 261.716 803.606 261.757 801.228 262.116 798.93 262.786 795.93 263.666 793.102 265.047 790.562 266.87 789.399 267.783 788.708 269.171 788.681 270.65L788.681 279.042 789.764 279.042 789.764 270.65C789.788 269.508 790.322 268.437 791.22 267.731 793.649 265.99 796.355 264.672 799.223 263.831 801.426 263.188 803.705 262.841 806 262.8 808.295 262.807 810.577 263.154 812.771 263.829 815.67 264.573 818.388 265.895 820.761 267.718 821.669 268.424 822.21 269.501 822.236 270.651L822.236 279.042 823.319 279.042 823.319 270.65C823.294 269.174 822.606 267.788 821.446 266.874Z" fill="#00407A"/><path d="M798.262 243.833C802.447 239.561 809.302 239.49 813.575 243.675 814.819 244.894 815.751 246.396 816.292 248.052L816.292 254.637 811.067 256.379C810.514 255.675 809.496 255.553 808.792 256.106 808.089 256.659 807.967 257.678 808.52 258.381 809.073 259.085 810.091 259.207 810.795 258.654 811.178 258.352 811.406 257.893 811.413 257.405L818.042 255.196C818.885 255.131 819.538 254.429 819.542 253.583L819.542 249.25C819.542 248.353 818.814 247.625 817.917 247.625L817.285 247.625C815.197 241.39 808.451 238.027 802.216 240.114 800.428 240.713 798.807 241.728 797.488 243.075 797.276 243.286 797.274 243.629 797.485 243.841 797.695 244.053 798.038 244.055 798.251 243.844 798.255 243.841 798.258 243.837 798.262 243.833ZM818.458 249.25 818.458 253.583C818.458 253.882 818.216 254.125 817.917 254.125L817.375 254.125 817.375 248.708 817.917 248.708C818.216 248.708 818.458 248.951 818.458 249.25Z" fill="#00407A"/></g></svg>