<svg width="76" height="76" xmlns="http://www.w3.org/2000/svg" xmlns:xlink="http://www.w3.org/1999/xlink" xml:space="preserve" overflow="hidden"><defs><clipPath id="clip0"><rect x="899" y="260" width="76" height="76"/></clipPath></defs><g clip-path="url(#clip0)" transform="translate(-899 -260)"><path d="M954.717 290.74C955.736 280.956 948.63 272.198 938.845 271.179 929.06 270.16 920.302 277.266 919.283 287.051 919.156 288.277 919.156 289.514 919.283 290.74 910.235 294.601 906.029 305.066 909.89 314.114 913.75 323.163 924.215 327.368 933.264 323.508 934.592 322.941 935.847 322.214 937 321.345 944.865 327.25 956.028 325.661 961.933 317.797 967.838 309.932 966.249 298.769 958.385 292.864 957.251 292.012 956.019 291.3 954.717 290.74ZM920.771 288.896C920.771 279.933 928.037 272.667 937 272.667 945.963 272.667 953.229 279.933 953.229 288.896 953.229 289.322 953.198 289.74 953.165 290.157 947.657 288.372 941.626 289.382 937 292.864 932.374 289.382 926.343 288.372 920.835 290.157 920.802 289.74 920.771 289.322 920.771 288.896ZM942.542 307.104C942.539 311.774 940.519 316.216 937 319.286 933.481 316.216 931.461 311.774 931.458 307.104 931.458 306.678 931.49 306.26 931.522 305.843 935.083 306.997 938.917 306.997 942.478 305.843 942.51 306.26 942.542 306.678 942.542 307.104ZM937 305.125C935.205 305.122 933.424 304.819 931.729 304.229 932.382 300.619 934.24 297.338 937 294.922 939.76 297.338 941.618 300.619 942.271 304.229 940.576 304.819 938.795 305.122 937 305.125ZM930.219 303.621C925.413 301.401 921.989 296.98 921.042 291.771 925.995 290.043 931.48 290.842 935.733 293.913 932.902 296.474 930.969 299.878 930.219 303.621ZM938.267 293.913C942.519 290.843 948.003 290.044 952.955 291.771 952.008 296.979 948.585 301.4 943.781 303.621 943.031 299.877 941.098 296.474 938.267 293.913ZM926.312 323.333C917.356 323.34 910.09 316.084 910.084 307.127 910.08 300.787 913.77 295.026 919.532 292.379 920.689 298.125 924.59 302.938 929.971 305.26 929.383 310.904 931.524 316.49 935.733 320.296 932.989 322.271 929.694 323.334 926.312 323.333ZM947.688 323.333C944.306 323.334 941.011 322.271 938.267 320.296 942.476 316.49 944.617 310.904 944.029 305.26 949.41 302.938 953.311 298.125 954.468 292.379 962.607 296.118 966.174 305.747 962.436 313.885 959.789 319.647 954.028 323.338 947.688 323.333Z" fill="#00407A"/></g></svg>