<svg width="51" height="51" xmlns="http://www.w3.org/2000/svg" xmlns:xlink="http://www.w3.org/1999/xlink" xml:space="preserve" overflow="hidden"><defs><clipPath id="clip0"><rect x="418" y="389" width="51" height="51"/></clipPath></defs><g clip-path="url(#clip0)" transform="translate(-418 -389)"><path d="M463.372 429.385 455.904 421.905C454.761 420.759 452.83 420.793 451.399 421.905L449.188 419.694C454.962 413.456 454.587 403.719 448.35 397.945 442.113 392.171 432.376 392.546 426.602 398.783 420.828 405.02 421.203 414.757 427.44 420.531 433.373 426.025 442.547 425.989 448.437 420.45L450.647 422.661C450.174 423.255 449.883 423.974 449.81 424.73 449.711 425.621 450.017 426.51 450.644 427.152L458.109 434.63C458.677 435.187 459.444 435.494 460.24 435.48 461.285 435.462 462.28 435.033 463.011 434.285 463.687 433.626 464.11 432.749 464.204 431.809 464.304 430.917 463.998 430.028 463.372 429.385ZM427.786 399.045C431.104 395.718 435.843 394.229 440.468 395.06 442.461 395.404 444.354 396.179 446.015 397.332 449.931 400.007 452.271 404.445 452.266 409.188L446.688 409.188C446.532 409.188 446.385 409.255 446.284 409.373L443.76 412.318C443.758 412.321 443.755 412.321 443.752 412.32 443.752 412.319 443.751 412.319 443.751 412.318L441.888 405.332C441.813 405.048 441.521 404.88 441.238 404.955 441.073 404.999 440.94 405.119 440.879 405.279L436.996 415.319C436.995 415.322 436.992 415.323 436.989 415.323 436.988 415.322 436.986 415.321 436.986 415.319L434.46 401.653C434.406 401.365 434.129 401.174 433.841 401.228 433.65 401.263 433.494 401.399 433.433 401.582L430.898 409.188 423.591 409.188C423.584 405.383 425.094 401.733 427.786 399.045ZM429.99 421.145C426.301 418.691 423.955 414.669 423.634 410.25L431.281 410.25C431.51 410.25 431.713 410.104 431.785 409.887L433.783 403.893C433.784 403.89 433.787 403.888 433.79 403.889 433.792 403.89 433.793 403.891 433.794 403.893L436.286 417.372C436.329 417.606 436.523 417.783 436.759 417.805 436.776 417.805 436.792 417.805 436.809 417.805 437.028 417.805 437.225 417.67 437.304 417.465L441.276 407.194C441.277 407.191 441.28 407.19 441.283 407.191 441.284 407.191 441.286 407.193 441.286 407.194L442.986 413.569C443.062 413.853 443.353 414.021 443.637 413.945 443.74 413.918 443.833 413.859 443.903 413.778L446.932 410.25 452.222 410.25C451.643 418.148 444.771 424.08 436.873 423.501 436.384 423.465 435.898 423.404 435.415 423.319 433.472 422.989 431.623 422.248 429.99 421.145ZM462.263 433.531C461.227 434.563 459.702 434.72 458.863 433.879L451.396 426.4C450.993 425.979 450.8 425.399 450.869 424.82 450.941 424.13 451.254 423.487 451.753 423.005 452.788 421.972 454.313 421.815 455.153 422.656L462.62 430.136C463.023 430.557 463.216 431.137 463.147 431.716 463.075 432.406 462.762 433.049 462.263 433.531Z" fill="#00407A"/></g></svg>