<svg width="52" height="51" xmlns="http://www.w3.org/2000/svg" xmlns:xlink="http://www.w3.org/1999/xlink" xml:space="preserve" overflow="hidden"><defs><clipPath id="clip0"><rect x="613" y="237" width="52" height="51"/></clipPath></defs><g clip-path="url(#clip0)" transform="translate(-613 -237)"><path d="M39.5781 20.4058C39.9548 19.7507 40.2577 19.0558 40.4812 18.334L42.8187 17.1652 42.8187 14.509 40.4812 13.3402C40.2859 12.6167 40.0003 11.9206 39.6312 11.2683L40.4812 8.77147 38.5687 6.85897 36.0719 7.70897C35.4199 7.33784 34.7238 7.05032 34 6.85312L32.8312 4.51562 30.175 4.51562 29.0062 6.85312C28.2827 7.04836 27.5866 7.33391 26.9344 7.70312L24.4375 6.85312 22.525 8.76562 23.375 11.2625C23.0059 11.9148 22.7204 12.6109 22.525 13.3344L20.1875 14.5031 20.1875 17.1594 22.525 18.3281C22.7204 19.0516 23.006 19.7477 23.375 20.4L22.525 22.8969 24.3844 24.7562 26.8812 23.9062C27.5335 24.2753 28.2296 24.5609 28.9531 24.7562L30.1219 27.0938 32.7781 27.0938 33.9469 24.7562C34.6704 24.5609 35.3665 24.2754 36.0188 23.9062L38.5156 24.7562 40.4281 22.8969ZM38.5719 20.748 39.2063 22.61 38.242 23.5477 36.3614 22.907 35.9024 22.7508 35.4832 22.9952C34.908 23.3203 34.2937 23.5711 33.6552 23.7416L33.2058 23.8701 32.9965 24.2882 32.1215 26.0413 30.7801 26.0413 29.9051 24.2882 29.6958 23.8701 29.2464 23.7416C28.6078 23.5711 27.9933 23.3203 27.4178 22.9952L26.9992 22.7508 26.5402 22.907 24.6691 23.5445 23.7447 22.6201 24.3822 20.7485 24.5384 20.2895 24.2941 19.8709C23.9697 19.2952 23.7197 18.6805 23.5503 18.0418L23.4218 17.5923 23.0042 17.3836 21.25 16.5075 21.25 15.164 23.0031 14.2906 23.4207 14.0813 23.5492 13.6319C23.7188 12.9933 23.9687 12.3789 24.293 11.8033L24.5374 11.3842 24.3812 10.9257 23.7437 9.05356 24.7212 8.07606 26.5923 8.71356 27.0512 8.87294 27.4699 8.62803C28.0455 8.30381 28.6599 8.05391 29.2984 7.88428L29.75 7.74828 29.9593 7.33019 30.8343 5.57706 32.1773 5.57706 33.0522 7.33019 33.2616 7.74828 33.7105 7.87684C34.349 8.04637 34.9634 8.29627 35.539 8.62059L35.9582 8.8655 36.4172 8.70613 38.2877 8.06862 39.2652 9.04613 38.6277 10.9183 38.4715 11.3767 38.7159 11.7959C39.0409 12.3714 39.2917 12.9859 39.4623 13.6244L39.5903 14.0739 40.0084 14.2832 41.7616 15.1587 41.7616 16.5022 40.0084 17.3777 39.602 17.5812 39.4682 18.0157C39.2684 18.6612 38.9982 19.2826 38.6623 19.8688L38.4179 20.2874Z" fill="#00407A" transform="matrix(1.01961 0 0 1 613 237)"/><path d="M8.18125 33.7971 8.18125 36.4533 10.5187 37.6221C10.7141 38.3456 10.9997 39.0417 11.3687 39.6939L10.5719 42.1908 12.4312 44.0502 14.9281 43.2533C15.5803 43.6225 16.2764 43.908 17 44.1033L18.1688 46.4408 20.825 46.4408 21.9938 44.1033C22.7173 43.908 23.4134 43.6224 24.0656 43.2533L26.5625 44.1033 28.4219 42.1908 27.625 39.7471C27.9941 39.0948 28.2796 38.3987 28.475 37.6752L30.8125 36.5064 30.8125 33.8502 28.475 32.6814C28.2796 31.9579 27.9941 31.2618 27.625 30.6096L28.475 28.1127 26.5625 26.2002 24.0656 27.0502C23.409 26.6902 22.714 26.4051 21.9938 26.2002L20.825 23.8627 18.1688 23.8627 17 26.2002C16.2764 26.3955 15.5803 26.681 14.9281 27.0502L12.4312 26.2002 10.5719 28.0596 11.3687 30.5564C11.0088 31.2131 10.7237 31.908 10.5187 32.6283ZM11.4006 33.3721 11.5345 32.9375C11.7173 32.2956 11.9695 31.6755 12.2867 31.0882L12.5247 30.6797 12.3808 30.2297 11.781 28.3486 12.7149 27.4141 14.586 28.0516 15.045 28.2083 15.4636 27.9639C16.039 27.6386 16.6535 27.3877 17.2922 27.2175L17.7438 27.0938 17.9531 26.6757 18.828 24.9225 20.171 24.9225 21.046 26.6757 21.2495 27.0826 21.684 27.2159C22.3257 27.3992 22.9456 27.6516 23.5328 27.9687L23.9519 28.2131 24.4109 28.0564 26.2815 27.4189 27.259 28.3969 26.6215 30.2685 26.4653 30.727 26.7097 31.1461C27.0348 31.7218 27.2856 32.3364 27.4561 32.9752L27.5841 33.4241 28.0022 33.6334 29.75 34.5068 29.75 35.8503 27.9969 36.7258 27.5788 36.9352 27.4508 37.3841C27.2803 38.0228 27.0295 38.6374 26.7043 39.2132L26.4642 39.6249 26.6119 40.078 27.2101 41.9124 26.2703 42.8836 24.4109 42.2498 23.9519 42.0936 23.5328 42.338C22.957 42.6635 22.3419 42.9144 21.7026 43.0844L21.2532 43.2129 21.0444 43.631 20.1694 45.3842 18.8264 45.3842 17.9515 43.631 17.7422 43.2129 17.2927 43.0844C16.654 42.9142 16.0396 42.6633 15.4642 42.338L15.0562 42.1 14.6057 42.2434 12.7256 42.8437 11.7815 41.8997 12.3813 40.0185 12.5253 39.5686 12.2873 39.16C11.962 38.5846 11.7112 37.9701 11.5409 37.3315L11.4123 36.882 10.9947 36.6727 9.24162 35.7972 9.24162 34.4537 10.9947 33.5782Z" fill="#00407A" transform="matrix(1.01961 0 0 1 613 237)"/><path d="M31.5031 11.8501C29.3026 11.8501 27.5187 13.6339 27.5187 15.8344 27.5187 18.0349 29.3026 19.8188 31.5031 19.8188 33.7036 19.8188 35.4875 18.0349 35.4875 15.8344 35.471 13.6408 33.6968 11.8665 31.5031 11.8501ZM31.5031 18.7563C29.8904 18.754 28.5836 17.4472 28.5812 15.8344 28.6027 14.2297 29.8984 12.934 31.5031 12.9126 33.1158 12.9149 34.4227 14.2217 34.425 15.8344 34.405 17.4401 33.1088 18.7372 31.5031 18.7584Z" fill="#00407A" transform="matrix(1.01961 0 0 1 613 237)"/><path d="M19.4969 39.1643C21.6974 39.1643 23.4813 37.3804 23.4813 35.1799 23.4813 32.9794 21.6974 31.1955 19.4969 31.1955 17.2964 31.1955 15.5125 32.9794 15.5125 35.1799 15.5098 37.3778 17.2894 39.1616 19.4873 39.1643 19.4905 39.1643 19.4937 39.1643 19.4969 39.1643ZM19.4969 32.2554C21.1106 32.2554 22.4188 33.5635 22.4188 35.1773 22.4188 36.791 21.1106 38.0991 19.4969 38.0991 17.8832 38.0991 16.575 36.791 16.575 35.1773 16.5773 33.5645 17.8842 32.2577 19.4969 32.2554Z" fill="#00407A" transform="matrix(1.01961 0 0 1 613 237)"/></g></svg>