<svg width="52" height="51" xmlns="http://www.w3.org/2000/svg" xmlns:xlink="http://www.w3.org/1999/xlink" xml:space="preserve" overflow="hidden"><defs><clipPath id="clip0"><rect x="419" y="549" width="52" height="51"/></clipPath></defs><g clip-path="url(#clip0)" transform="translate(-419 -549)"><path d="M29.0222 47.953 27.9597 47.953 27.9597 42.4344C27.9597 42.2355 28.0708 42.0532 28.2476 41.9621 28.7716 41.6921 29.6722 40.6621 29.8154 36.7987 29.8184 36.7145 29.8415 36.6322 29.8829 36.5587L31.9335 32.8959C31.9849 32.7876 31.9959 32.6646 31.9646 32.5489 31.9365 32.4454 31.865 32.3589 31.7685 32.312 31.5626 32.1861 31.2937 32.251 31.1679 32.4569 31.1662 32.4596 31.1645 32.4625 31.1629 32.4653L29.1976 35.9556C29.0535 36.2112 28.7295 36.3015 28.4739 36.1575 28.2653 36.0398 28.1612 35.7972 28.2197 35.5649L29.5384 30.3397C29.5726 30.2256 29.5561 30.1022 29.4932 30.0011 29.4337 29.9058 29.3366 29.8402 29.226 29.8204 29.102 29.7776 28.9656 29.7912 28.8525 29.8576 28.7569 29.917 28.6912 30.0143 28.6718 30.1251L27.5414 34.6519C27.47 34.9365 27.1815 35.1094 26.8969 35.0381 26.6607 34.9789 26.495 34.7666 26.4948 34.5231L26.4948 29.6553C26.498 29.4171 26.3173 29.2165 26.0801 29.1948 25.8344 29.1781 25.6218 29.3637 25.6051 29.6093 25.6044 29.6193 25.6041 29.6292 25.6041 29.6392L25.6041 34.8647C25.6034 35.1581 25.3651 35.3954 25.0717 35.3948 24.8254 35.3943 24.6118 35.2246 24.5556 34.9848L23.4329 30.15C23.3783 29.9094 23.139 29.7586 22.8984 29.8131 22.6578 29.8677 22.507 30.107 22.5616 30.3476 22.5636 30.3566 22.566 30.3656 22.5686 30.3745L23.9299 36.1594C23.9421 36.2115 23.9463 36.2653 23.9424 36.3187 23.8821 37.0091 23.763 37.693 23.5864 38.3631 23.5152 38.6477 23.2267 38.8207 22.9421 38.7495 22.8384 38.7236 22.7449 38.6669 22.6739 38.587 22.6367 38.5548 22.6042 38.5175 22.5774 38.4762 21.8572 37.3087 20.7597 36.4222 19.4667 35.9638 19.3716 35.9317 19.2674 35.9413 19.1798 35.9903 19.0873 36.0455 19.0195 36.1342 18.9905 36.2379 18.9366 36.4374 19.0546 36.6427 19.254 36.6965 19.2588 36.6978 19.2637 36.699 19.2685 36.7001 20.0601 36.8814 20.6621 37.8079 21.3588 38.8806L21.4169 38.9704C22.1819 40.1657 23.1087 41.5015 24.456 42.2653 24.6225 42.3596 24.7253 42.5362 24.7253 42.7275L24.7253 47.9531 23.6628 47.9531 23.6628 43.0279C22.3744 42.1111 21.303 40.9225 20.5242 39.5462L20.4682 39.4592C19.9688 38.691 19.4031 37.8202 18.9966 37.7264 18.2281 37.5307 17.7638 36.7492 17.9595 35.9808 17.9635 35.9648 17.9679 35.9489 17.9725 35.9331 18.0791 35.5691 18.3215 35.26 18.6495 35.0697 18.9849 34.8749 19.3863 34.8287 19.7571 34.9422 20.941 35.3231 21.9911 36.035 22.7835 36.9935 22.7855 36.9956 22.7889 36.9956 22.7909 36.9935 22.7916 36.9928 22.7921 36.992 22.7923 36.9911 22.8279 36.774 22.8578 36.5484 22.8767 36.3226L21.5286 30.5911C21.3394 29.7799 21.8437 28.9688 22.655 28.7797 23.4663 28.5905 24.2773 29.0948 24.4665 29.9061 24.4686 29.9155 24.4708 29.925 24.4728 29.9346L24.5317 30.1866C24.5373 30.2109 24.5418 30.2103 24.5418 30.1855L24.5418 29.6709C24.5354 28.8478 25.1818 28.1675 26.0042 28.1319 26.8376 28.1077 27.5328 28.7638 27.5569 29.5973 27.5573 29.6112 27.5575 29.6253 27.5575 29.6392L27.5575 30.1635C27.5575 30.1865 27.5621 30.1871 27.5676 30.1647L27.6338 29.9011C27.7117 29.5103 27.9477 29.1691 28.2859 28.9584 28.636 28.7389 29.0619 28.6759 29.4605 28.7846 29.8472 28.8638 30.1841 29.0987 30.3923 29.434 30.6116 29.7842 30.6745 30.2101 30.5661 30.6088L30.2307 31.9375C30.226 31.9562 30.2301 31.9581 30.24 31.9415 30.2575 31.9159 30.2724 31.8885 30.2844 31.86 30.7078 31.2084 31.5607 30.9915 32.2438 31.3616 32.6082 31.5417 32.8787 31.8685 32.9876 32.2602 33.0917 32.639 33.0505 33.0431 32.8719 33.393L30.8722 36.9665C30.744 40.0388 30.1375 41.9314 29.0221 42.7306Z" fill="#00407A" transform="matrix(1.01961 0 0 1 419 549)"/><path d="M3.89512 36.2061 3.394 35.2694 8.22763 32.6811C8.40416 32.5867 8.61873 32.5995 8.78273 32.7143 9.60038 33.2865 11.5027 32.8986 14.0018 31.6487 14.0776 31.6111 14.1611 31.5919 14.2457 31.5926L18.4936 31.6414C18.7396 31.6397 18.9377 31.4388 18.9359 31.1929 18.9342 30.9469 18.7334 30.7488 18.4874 30.7505L14.5259 30.7016C14.2325 30.698 13.9976 30.4573 14.0012 30.1638 14.0042 29.9234 14.1683 29.7149 14.4013 29.6556L19.5769 28.337C19.6916 28.3058 19.789 28.2298 19.8472 28.1262 19.8985 28.0371 19.9112 27.9309 19.8825 27.8322 19.8536 27.7091 19.7751 27.6033 19.6656 27.5401 19.5765 27.4891 19.4706 27.4763 19.3719 27.5048L14.862 28.6822C14.5781 28.7562 14.288 28.5861 14.2139 28.3023 14.1523 28.0663 14.2593 27.8186 14.4734 27.7018L18.7701 25.3577C18.9851 25.2426 19.0659 24.975 18.9508 24.76 18.8356 24.5451 18.568 24.4642 18.3531 24.5794 18.3468 24.5827 18.3406 24.5863 18.3345 24.5899L13.7566 27.0257C13.4975 27.1632 13.1758 27.0646 13.0383 26.8055 12.9232 26.5885 12.9718 26.3209 13.1559 26.1583L16.8667 22.8863C16.9529 22.8071 17.0048 22.6974 17.0114 22.5806 17.0224 22.4675 16.9879 22.3547 16.9154 22.2671 16.8366 22.1815 16.7276 22.1301 16.6114 22.1237 16.4984 22.113 16.3858 22.1473 16.298 22.2193L11.8053 26.1269C11.7673 26.16 11.7249 26.1874 11.6792 26.2085 11.0298 26.5125 10.3411 26.7241 9.63305 26.8371 9.34325 26.8819 9.072 26.6834 9.02716 26.3937 9.02296 26.3667 9.02089 26.3394 9.02089 26.3121 9.02078 26.1588 9.08161 26.0116 9.18999 25.9031 9.82765 24.7388 10.0647 23.3972 9.86467 22.0849 9.84369 21.9901 9.78302 21.9089 9.69813 21.8617 9.5973 21.803 9.47888 21.7822 9.36403 21.8027 9.16173 21.8773 9.04698 22.0912 9.09681 22.301 9.28359 23.1089 8.76998 24.0893 8.17594 25.2244 7.42576 26.6182 6.75808 27.9768 6.715 29.5016 6.70932 29.6909 6.60338 29.8628 6.43694 29.9531L1.84694 32.4438 1.34056 31.5099 5.66892 29.1611C5.87547 27.5953 6.40682 26.09 7.22893 24.7414 7.66785 23.9032 8.15968 22.9643 8.058 22.5242 7.88348 21.7358 8.37085 20.9523 9.15524 20.7605 9.52632 20.6891 9.91073 20.7549 10.2369 20.9457 10.5807 21.1404 10.8235 21.4741 10.9031 21.8611 11.1241 23.0924 10.991 24.3611 10.5193 25.5197 10.5185 25.5225 10.5201 25.5255 10.5229 25.5263 10.5239 25.5266 10.5248 25.5266 10.5257 25.5264 10.7396 25.4541 10.9532 25.3701 11.1661 25.2742L15.5998 21.4178C16.2289 20.8864 17.1668 20.9523 17.7154 21.5665 17.9739 21.8685 18.102 22.2608 18.0714 22.6572 18.0438 23.0519 17.863 23.4203 17.5676 23.6836L17.2855 23.9324C17.2675 23.9484 17.2701 23.952 17.2913 23.9408L17.8472 23.6451C18.5799 23.2544 19.4907 23.5317 19.8813 24.2644 20.272 24.9971 19.9947 25.9078 19.262 26.2985L18.8175 26.5411C18.7977 26.5518 18.7994 26.5562 18.8212 26.5505 18.8212 26.5505 18.8823 26.5343 18.8972 26.531 19.3235 26.428 19.771 26.4558 20.1813 26.6107 20.5386 26.8091 20.7995 27.1445 20.9038 27.5396 21.0116 27.909 20.9657 28.3062 20.7763 28.6412 20.5779 28.9981 20.2429 29.2589 19.8482 29.3637L18.6001 29.6817C18.5834 29.6859 18.5841 29.69 18.601 29.6912 19.4318 29.7513 20.0567 30.4735 19.9966 31.3043 19.9395 32.0948 19.2801 32.7063 18.4875 32.7038L14.3615 32.6564C11.6664 33.9869 9.68554 34.3564 8.46743 33.7577Z" fill="#00407A" transform="matrix(1.01961 0 0 1 419 549)"/><path d="M45.8909 38.6864 42.5797 35.0984C40.8832 35.4111 39.2402 35.0134 37.9053 34.6914 37.263 34.5241 35.945 34.1809 35.5505 34.3972 35.2122 34.5852 34.8101 34.6211 34.4439 34.4958 34.0884 34.376 33.791 34.1268 33.6107 33.7978 33.4209 33.4591 33.3842 33.0557 33.5098 32.6883 33.6296 32.3328 33.8787 32.0353 34.2076 31.8549 35.3314 31.3202 36.5852 31.1196 37.8197 31.2771 37.8226 31.2771 37.8251 31.2748 37.8251 31.2719 37.8251 31.271 37.8249 31.2701 37.8245 31.2693 37.7001 31.0804 37.566 30.8924 37.4215 30.7115L32.5546 27.3858C31.8792 26.9052 31.7081 25.9749 32.1681 25.2853 32.6174 24.612 33.3156 24.2534 34.0068 24.7146L34.5124 25.0565C34.5325 25.0701 34.5354 25.0667 34.519 25.0489L34.1245 24.6217C33.5605 24.0441 33.5715 23.1186 34.1491 22.5546 34.1618 22.5423 34.1747 22.5301 34.1878 22.5182 34.4717 22.2269 34.8675 22.0725 35.2737 22.0946 35.6645 22.1183 36.0326 22.2867 36.306 22.567L36.7188 23.01C36.734 23.0263 36.7377 23.0237 36.727 23.004L36.539 22.6605C36.3539 22.3066 36.3092 21.8958 36.4139 21.5104 36.5225 21.1186 36.793 20.7916 37.1577 20.6116 37.5078 20.4334 37.9119 20.3922 38.2907 20.4962 38.6824 20.6047 39.0091 20.8754 39.1886 21.24L39.8491 22.4363C39.8578 22.4523 39.8621 22.4507 39.8585 22.4329 39.8585 22.4329 39.8545 22.4165 39.8532 22.4088 39.6768 21.595 40.1936 20.7923 41.0073 20.6159 41.8048 20.4431 42.595 20.936 42.7905 21.7281L43.7399 25.7168C44.9238 27.0509 46.668 29.3853 46.2872 31.202L49.7979 35.0372 49.0146 35.7547 45.3036 31.7013C45.1688 31.5544 45.1278 31.3443 45.1973 31.1575 45.6306 29.9921 44.2734 27.8974 42.8598 26.3258 42.8 26.26 42.758 26.18 42.7376 26.0934L41.7612 21.9911C41.699 21.7449 41.449 21.5957 41.2028 21.6578 41.2022 21.658 41.2016 21.6582 41.2009 21.6583 40.9663 21.7305 40.8314 21.976 40.8964 22.2128L41.8178 26.0419C41.8872 26.3269 41.7124 26.6143 41.4273 26.6837 41.1938 26.7406 40.9512 26.6336 40.8357 26.4228L38.2479 21.7344C38.2023 21.6292 38.1119 21.5501 38.0015 21.519 37.8774 21.4872 37.7459 21.5027 37.6326 21.5623 37.5357 21.6085 37.464 21.695 37.4366 21.7988 37.4047 21.9229 37.4202 22.0545 37.4801 22.1679L39.7167 26.2528C39.8573 26.5103 39.7625 26.8331 39.505 26.9736 39.2922 27.0898 39.0277 27.0472 38.8622 26.87L35.5419 23.305C35.4561 23.2184 35.3419 23.1656 35.2203 23.1562 35.1146 23.1522 35.0123 23.1936 34.9391 23.2699 34.7563 23.4159 34.7265 23.6824 34.8725 23.8652 34.8782 23.8724 34.8842 23.8794 34.8903 23.8861L38.469 27.7594C38.6678 27.9751 38.6541 28.3112 38.4383 28.51 38.2571 28.6771 37.9847 28.6975 37.7805 28.5593L33.6793 25.7756C33.4761 25.6313 33.1944 25.6791 33.0502 25.8823 32.9082 26.0824 32.9521 26.3593 33.149 26.5057L38.0854 29.8788C38.1272 29.9075 38.1648 29.9419 38.197 29.9811 38.6265 30.5257 39.0046 31.1089 39.3264 31.7233 39.4669 31.9809 39.3721 32.3036 39.1146 32.4441 39.0365 32.4867 38.9489 32.509 38.86 32.509 38.8031 32.509 38.7465 32.5044 38.6904 32.4952 37.3722 32.1345 35.9702 32.2375 34.7189 32.7867 34.6251 32.8389 34.5537 32.9237 34.5182 33.025 34.488 33.1098 34.4958 33.2036 34.5394 33.2823 34.5914 33.3784 34.6772 33.4518 34.7802 33.4883 34.8652 33.5184 34.9591 33.5107 35.038 33.467 35.7499 33.0785 36.8745 33.3253 38.1638 33.6616 39.4613 33.9746 41.0872 34.3664 42.6441 34.0004 42.8308 33.9566 43.0265 34.0165 43.1567 34.1572L46.6721 37.9663Z" fill="#00407A" transform="matrix(1.01961 0 0 1 419 549)"/><path d="M33.0521 21.8764C32.8056 21.8917 32.5602 21.8332 32.3471 21.7082 31.996 21.5257 31.7366 21.2054 31.6312 20.8239 31.527 20.4452 31.5683 20.0411 31.7469 19.6912L31.9087 19.3864C31.921 19.364 31.9172 19.3614 31.9004 19.3806L31.4983 19.8395C31.2251 20.1833 30.8052 20.3772 30.3664 20.3624 30.0183 20.355 29.6827 20.2316 29.4128 20.0118 29.1016 19.7466 28.9092 19.368 28.8784 18.9603 28.8478 18.5639 28.9759 18.1717 29.2344 17.8697L29.5622 17.4975C29.5785 17.479 29.5754 17.4756 29.5554 17.49L29.3838 17.6078C29.1434 17.8194 28.8313 17.9313 28.5112 17.9207 28.015 17.9176 27.5542 17.6629 27.2878 17.2444 26.8273 16.5527 27.0009 15.6202 27.6795 15.1406L28.7329 14.4147C28.7462 14.4056 28.744 14.4018 28.7284 14.4059 28.5938 14.4409 28.455 14.4569 28.316 14.4533 27.6518 14.4386 27.0661 14.0139 26.8458 13.3871 26.5561 12.6023 26.9487 11.7302 27.7282 11.4268L31.6317 10.0455C33.7453 7.83509 35.436 6.81833 36.8015 6.95167L40.2193 3.02462 41.0204 3.7221 37.4075 7.87313C37.2762 8.02331 37.072 8.08759 36.8783 8.03978 36.3102 7.89799 34.9605 8.07543 32.3144 10.8688 32.2566 10.9298 32.1851 10.9763 32.1059 11.0043L28.1023 12.4206C27.8704 12.5134 27.7538 12.7733 27.8387 13.0081 27.9039 13.2218 28.0933 13.3736 28.316 13.3906 28.3747 13.3951 28.4336 13.3878 28.4893 13.3691L32.1905 12.0541C32.4669 11.9556 32.7707 12.0999 32.8691 12.3763 32.9499 12.6031 32.8681 12.8558 32.6698 12.9922L28.2756 16.0198C28.0793 16.1715 28.034 16.4492 28.1718 16.6554 28.2428 16.7765 28.3708 16.853 28.5111 16.8581 28.5676 16.8628 28.6241 16.849 28.6719 16.8187 28.6946 16.7961 28.7193 16.7755 28.7456 16.7573L32.5541 14.1201C32.7955 13.9533 33.1264 14.0138 33.2932 14.2552 33.4317 14.4556 33.416 14.7246 33.2553 14.9077L30.0331 18.5705C29.9613 18.6579 29.9272 18.7703 29.9382 18.8829 29.9447 18.9991 29.9961 19.1082 30.0816 19.1873 30.161 19.2561 30.2615 19.2959 30.3665 19.2999 30.49 19.3125 30.611 19.2584 30.6839 19.1578L34.1661 15.1834C34.359 14.9624 34.6946 14.9395 34.9157 15.1324 35.1023 15.2953 35.1516 15.5655 35.0346 15.7838L32.6912 20.179C32.6357 20.2894 32.6225 20.4163 32.654 20.5358 32.6816 20.6397 32.7535 20.7262 32.8505 20.7724 32.8704 20.7824 32.8896 20.7937 32.9081 20.806 32.9558 20.8137 33.0041 20.8164 33.0524 20.8142 33.2297 20.8048 33.3887 20.7021 33.47 20.5442L36.2948 15.2826C36.3193 15.2368 36.3504 15.1949 36.3872 15.1582 36.8884 14.6669 37.4428 14.233 38.0401 13.8646 38.2876 13.707 38.616 13.7799 38.7735 14.0274 38.8278 14.1127 38.8567 14.2117 38.8567 14.3128 38.8567 14.3355 38.8551 14.4072 38.8525 14.4297 38.6329 15.7804 38.8769 17.1657 39.5449 18.36 39.6618 18.5363 39.8996 18.5845 40.0759 18.4676 40.2522 18.3507 40.3004 18.1129 40.1835 17.9366 40.1816 17.9338 40.1798 17.9311 40.1779 17.9284 39.7364 17.2347 39.8733 16.1429 40.0321 14.879L40.044 14.7839C40.2484 13.301 40.4061 11.7375 39.9205 10.2809 39.8608 10.1021 39.9003 9.905 40.0243 9.76299L43.4421 5.85618 44.2421 6.55562 41.0194 10.2395C41.372 11.7779 41.3985 13.373 41.0972 14.9223L41.0866 15.0111C40.9703 15.9374 40.8386 16.9874 41.0684 17.3486 41.5098 18.0138 41.3284 18.9109 40.6633 19.3523 40.0008 19.7919 39.1077 19.614 38.6643 18.9541 38.0162 17.8825 37.6912 16.6466 37.7284 15.3948 37.7282 15.3919 37.7256 15.3897 37.7226 15.3899 37.7217 15.39 37.7208 15.3903 37.72 15.3908 37.5298 15.5431 37.3556 15.6968 37.193 15.8554L34.399 21.0592C34.1294 21.5538 33.6153 21.8657 33.0521 21.8764Z" fill="#00407A" transform="matrix(1.01961 0 0 1 419 549)"/><path d="M20.4096 21.0461C19.8557 21.0688 19.3366 20.7761 19.0695 20.2903L18.3808 19.0559C18.3721 19.0403 18.3678 19.0419 18.3713 19.0594L18.3878 19.1211C18.5581 19.905 18.0953 20.6876 17.3263 20.9161 17.1905 20.9763 17.0426 21.0042 16.8942 20.9975 16.2013 21.0042 15.5981 20.5253 15.4477 19.8488L14.4606 15.8987C13.9014 15.3116 11.4166 12.5522 11.9891 10.4358L8.45097 6.66708 9.22606 5.94001 12.9853 9.94447C13.1328 10.1018 13.1706 10.3327 13.0809 10.5288 12.5125 11.7739 14.1512 14.089 15.3175 15.2558 15.3855 15.3239 15.4337 15.4092 15.457 15.5026L16.4823 19.6049C16.5232 19.7994 16.6961 19.9378 16.8948 19.9349 16.9287 19.9216 16.9638 19.9115 16.9996 19.9047 17.2506 19.8473 17.4076 19.5973 17.3502 19.3463 17.3497 19.3442 17.3492 19.3422 17.3488 19.3402L16.4263 15.5113C16.3576 15.2261 16.5331 14.9392 16.8183 14.8704 17.0501 14.8146 17.2907 14.9201 17.4068 15.1283L19.9945 19.7678C20.0725 19.921 20.2393 20.0078 20.4096 19.9836 20.4776 19.9807 20.5439 19.9611 20.6026 19.9265 20.6211 19.9143 20.6403 19.9032 20.6601 19.8932 20.7538 19.8438 20.823 19.7582 20.8516 19.6562 20.8891 19.5411 20.8792 19.4157 20.824 19.3079L18.5778 15.2538C18.4356 14.9972 18.5284 14.6739 18.785 14.5317 18.9984 14.4134 19.265 14.4557 19.4313 14.6343L22.7516 18.1993C22.9456 18.3639 23.2292 18.3677 23.4275 18.2082 23.5858 18.0336 23.5858 17.7674 23.4275 17.5929L19.8752 13.7966C19.6748 13.5823 19.6861 13.2461 19.9005 13.0457 20.0809 12.877 20.3537 12.8549 20.559 12.9924L24.7093 15.7762C24.7832 15.8163 24.8665 15.8358 24.9506 15.8327 25.1046 15.8296 25.2482 15.7543 25.3384 15.6295 25.4752 15.4262 25.4331 15.1518 25.2414 14.999L20.2619 11.678C20.2179 11.6488 20.1785 11.6131 20.145 11.5723 19.7153 11.0277 19.3372 10.4444 19.0156 9.82983 18.875 9.57228 18.9699 9.24954 19.2274 9.10903 19.3055 9.06642 19.3931 9.04411 19.482 9.04411 19.5388 9.04411 19.5956 9.04873 19.6516 9.05797 20.9698 9.41832 22.3716 9.31536 23.623 8.76642 23.7059 8.72153 23.7668 8.64476 23.7917 8.55392 23.8172 8.45819 23.8035 8.35619 23.7538 8.2705 23.709 8.18561 23.6314 8.12287 23.539 8.09694 23.4431 8.07197 23.3412 8.08562 23.2552 8.13498 22.5553 8.51705 21.4799 8.28373 20.2343 8.01279L20.1502 7.99452C18.8356 7.67715 17.2128 7.28503 15.6631 7.69606 15.474 7.74589 15.2729 7.68809 15.1391 7.5455L11.575 3.73644 12.351 3.01033 15.7045 6.59473C17.4045 6.23879 19.0498 6.63611 20.3878 6.95906L20.4599 6.97462C21.3216 7.16226 22.3929 7.39585 22.7431 7.20455 23.0718 7.02015 23.46 6.97308 23.8233 7.07354 24.1899 7.17538 24.4998 7.42119 24.6824 7.75503 24.8684 8.0844 24.9162 8.47418 24.8152 8.83878 24.7135 9.2055 24.4678 9.51543 24.134 9.69802 23.0131 10.239 21.7585 10.4408 20.5245 10.2786 20.5215 10.2786 20.5191 10.281 20.5191 10.2839 20.5191 10.2847 20.5193 10.2856 20.5197 10.2864 20.643 10.4735 20.7755 10.6597 20.9185 10.8389L25.831 14.1147C26.5223 14.5992 26.6899 15.5523 26.2055 16.2437 25.9188 16.6528 25.4502 16.896 24.9506 16.895 24.6562 16.899 24.3671 16.8171 24.1186 16.6592 24.1186 16.6592 24.0012 16.5811 23.8606 16.4861 23.8399 16.4721 23.8372 16.4755 23.8542 16.4939L24.2154 16.8799C24.7628 17.4848 24.7358 18.4137 24.1542 18.9857 24.1367 19.0035 24.1177 19.0199 24.0977 19.0349 23.81 19.2565 23.4585 19.3794 23.0953 19.3855 22.6802 19.3923 22.2801 19.2303 21.9867 18.9367L21.6361 18.5599C21.6204 18.543 21.6167 18.5457 21.6279 18.5658L21.7534 18.7922C21.9491 19.1533 21.9899 19.5783 21.8665 19.97 21.7567 20.3387 21.5037 20.648 21.164 20.8287 20.9369 20.9682 20.6761 21.0434 20.4096 21.0461Z" fill="#00407A" transform="matrix(1.01961 0 0 1 419 549)"/></g></svg>